<svg width="1920" height="921" viewBox="0 0 1920 921" fill="none" xmlns="http://www.w3.org/2000/svg">
<g opacity="0.4" clip-path="url(#clip0_1_364)">
<rect width="1920" height="921" fill="white"/>
<mask id="mask0_1_364" style="mask-type:alpha" maskUnits="userSpaceOnUse" x="-440" y="-317" width="2608" height="1919">
<path d="M1010.88 405.104C1010.88 601.45 881.061 760.62 720.92 760.62C560.779 760.62 -439.763 71.9572 -439.763 -124.389C-439.763 -320.736 997.821 -50.4284 1157.96 -50.4284C1318.1 -50.4284 1010.88 208.757 1010.88 405.104Z" fill="url(#paint0_linear_1_364)"/>
<path d="M1123.5 1246.47C1123.5 1442.82 993.681 1601.99 833.54 1601.99C673.399 1601.99 -218.722 1556.22 -218.722 1359.87C-218.722 1163.53 -152.778 698.428 7.36264 698.428C167.503 698.428 1123.5 1050.12 1123.5 1246.47Z" fill="url(#paint1_radial_1_364)"/>
<path d="M1452.43 405.642C1884.52 795.893 1684.92 599.776 2056.04 589.896C2114.26 601.111 2213.1 601.644 2142.68 514.055C2054.66 404.569 2083.03 327.239 1973.03 207.953C1863.02 88.6679 1796.03 -32.5239 1629.96 -222.244C1463.88 -411.964 1451.11 -255.572 1263.88 -270.398C1076.65 -285.223 1162.05 -261.68 903.72 13.5961C645.394 288.872 1020.34 15.3906 1452.43 405.642Z" fill="#D9D9D9"/>
<path d="M1044.5 1019.48C466.259 1087.56 745.294 1066.55 508.283 1352.31C461.497 1388.73 395.996 1462.75 508.283 1467.45C648.64 1473.34 688.142 1545.62 850.352 1541.41C1012.56 1537.21 1147.88 1566.63 1400.02 1566.63C1652.16 1566.63 1542.9 1454 1677.37 1322.89C1811.84 1191.78 1737.88 1240.53 1700.9 864.839C1663.92 489.151 1622.74 951.407 1044.5 1019.48Z" fill="#D9D9D9"/>
</mask>
<g mask="url(#mask0_1_364)">
<line x1="-43.0605" y1="812.731" x2="1972.37" y2="812.731" stroke="black" stroke-opacity="0.09" stroke-width="1.68093"/>
<line x1="-43.0605" y1="382.413" x2="1972.37" y2="382.413" stroke="black" stroke-opacity="0.09" stroke-width="1.68093"/>
<line x1="-43.0605" y1="597.57" x2="1972.37" y2="597.57" stroke="black" stroke-opacity="0.09" stroke-width="1.68093"/>
<line x1="-43.0605" y1="167.253" x2="1972.37" y2="167.253" stroke="black" stroke-opacity="0.09" stroke-width="1.68093"/>
<line x1="-43.0605" y1="705.15" x2="1972.37" y2="705.15" stroke="black" stroke-opacity="0.09" stroke-width="1.68093"/>
<line x1="-43.0605" y1="274.833" x2="1972.37" y2="274.833" stroke="black" stroke-opacity="0.09" stroke-width="1.68093"/>
<line x1="-43.0605" y1="489.99" x2="1972.37" y2="489.99" stroke="black" stroke-opacity="0.09" stroke-width="1.68093"/>
<line x1="-43.0605" y1="920.311" x2="1972.37" y2="920.311" stroke="black" stroke-opacity="0.09" stroke-width="1.68093"/>
<line x1="-43.0605" y1="59.6726" x2="1972.37" y2="59.6726" stroke="black" stroke-opacity="0.09" stroke-width="1.68093"/>
<line x1="632.366" y1="-148.766" x2="632.366" y2="1018.64" stroke="black" stroke-opacity="0.09" stroke-width="1.2607"/>
<line x1="309.626" y1="-148.766" x2="309.626" y2="1018.64" stroke="black" stroke-opacity="0.09" stroke-width="1.2607"/>
<line x1="955.102" y1="-148.766" x2="955.102" y2="1018.64" stroke="black" stroke-opacity="0.09" stroke-width="1.2607"/>
<line x1="1277.84" y1="-148.766" x2="1277.84" y2="1018.64" stroke="black" stroke-opacity="0.09" stroke-width="1.2607"/>
<line x1="148.255" y1="-148.766" x2="148.255" y2="1018.64" stroke="black" stroke-opacity="0.09" stroke-width="1.2607"/>
<line x1="793.732" y1="-148.766" x2="793.732" y2="1018.64" stroke="black" stroke-opacity="0.09" stroke-width="1.2607"/>
<line x1="470.996" y1="-148.766" x2="470.996" y2="1018.64" stroke="black" stroke-opacity="0.09" stroke-width="1.2607"/>
<line x1="1116.47" y1="-148.766" x2="1116.47" y2="1018.64" stroke="black" stroke-opacity="0.09" stroke-width="1.2607"/>
<line x1="1439.21" y1="-148.766" x2="1439.21" y2="1018.64" stroke="black" stroke-opacity="0.09" stroke-width="1.2607"/>
<line x1="67.5726" y1="-148.766" x2="67.5725" y2="1018.64" stroke="black" stroke-opacity="0.09" stroke-width="1.2607"/>
<line x1="713.049" y1="-148.766" x2="713.049" y2="1018.64" stroke="black" stroke-opacity="0.09" stroke-width="1.2607"/>
<line x1="390.308" y1="-148.766" x2="390.308" y2="1018.64" stroke="black" stroke-opacity="0.09" stroke-width="1.2607"/>
<line x1="1035.79" y1="-148.766" x2="1035.79" y2="1018.64" stroke="black" stroke-opacity="0.09" stroke-width="1.2607"/>
<line x1="1358.53" y1="-148.766" x2="1358.53" y2="1018.64" stroke="black" stroke-opacity="0.09" stroke-width="1.2607"/>
<line x1="228.943" y1="-148.766" x2="228.943" y2="1018.64" stroke="black" stroke-opacity="0.09" stroke-width="1.2607"/>
<line x1="874.419" y1="-148.766" x2="874.419" y2="1018.64" stroke="black" stroke-opacity="0.09" stroke-width="1.2607"/>
<line x1="551.679" y1="-148.766" x2="551.679" y2="1018.64" stroke="black" stroke-opacity="0.09" stroke-width="1.2607"/>
<line x1="1197.16" y1="-148.766" x2="1197.15" y2="1018.64" stroke="black" stroke-opacity="0.09" stroke-width="1.2607"/>
<line x1="1519.9" y1="-148.766" x2="1519.9" y2="1018.64" stroke="black" stroke-opacity="0.09" stroke-width="1.2607"/>
<g opacity="0.7">
<rect x="1526.78" y="275.977" width="106.968" height="105.44" fill="#2563EB" fill-opacity="0.11"/>
<rect x="664.918" y="169.009" width="106.968" height="105.44" fill="#2563EB" fill-opacity="0.15"/>
<rect x="1418.28" y="382.945" width="106.968" height="105.44" fill="#2563EB" fill-opacity="0.11"/>
<rect x="556.422" y="275.977" width="106.968" height="105.44" fill="#2563EB" fill-opacity="0.15"/>
<rect x="1418.28" y="275.977" width="106.968" height="105.44" fill="#2563EB" fill-opacity="0.11"/>
<rect x="556.422" y="169.009" width="106.968" height="105.44" fill="#2563EB" fill-opacity="0.15"/>
<rect x="235.517" y="920.843" width="106.968" height="106.968" fill="#2563EB" fill-opacity="0.15"/>
<rect x="1311.31" y="60.512" width="106.968" height="106.968" fill="#2563EB" fill-opacity="0.15"/>
<rect x="1204.34" y="-61.7371" width="106.968" height="106.968" fill="#2563EB" fill-opacity="0.15"/>
<rect x="1203.17" y="58.984" width="106.968" height="108.496" fill="#2563EB" fill-opacity="0.15"/>
<rect x="235.517" y="165.952" width="108.496" height="110.025" fill="#2563EB" fill-opacity="0.15"/>
<rect x="127.02" y="58.9842" width="108.496" height="106.968" fill="#2563EB" fill-opacity="0.15"/>
<rect x="20.0521" y="60.5122" width="108.496" height="106.968" fill="#2563EB" fill-opacity="0.15"/>
<rect x="127.02" y="165.952" width="108.496" height="110.025" fill="#2563EB" fill-opacity="0.15"/>
<rect x="557.95" y="-47.9839" width="108.496" height="106.968" fill="#2563EB" fill-opacity="0.15"/>
<rect x="235.517" y="381.417" width="106.968" height="108.496" fill="#2563EB" fill-opacity="0.15"/>
<rect x="1526.78" y="920.843" width="106.968" height="106.968" fill="#2563EB" fill-opacity="0.15"/>
</g>
<rect y="670" width="1919" height="251" fill="url(#paint2_linear_1_364)"/>
</g>
</g>
<defs>
<linearGradient id="paint0_linear_1_364" x1="252.781" y1="-26.0548" x2="858.756" y2="296.684" gradientUnits="userSpaceOnUse">
<stop stop-color="white"/>
<stop offset="1" stop-color="white" stop-opacity="0"/>
</linearGradient>
<radialGradient id="paint1_radial_1_364" cx="0" cy="0" r="1" gradientUnits="userSpaceOnUse" gradientTransform="translate(206.553 1254.82) rotate(-29.3932) scale(1036.02 1780.63)">
<stop stop-color="white"/>
<stop offset="1" stop-color="white" stop-opacity="0"/>
</radialGradient>
<linearGradient id="paint2_linear_1_364" x1="959.5" y1="670" x2="959.5" y2="921" gradientUnits="userSpaceOnUse">
<stop stop-color="white" stop-opacity="0"/>
<stop offset="1" stop-color="white"/>
</linearGradient>
<clipPath id="clip0_1_364">
<rect width="1920" height="921" fill="white"/>
</clipPath>
</defs>
</svg>
