<svg width="103" height="15" viewBox="0 0 103 15" fill="none" xmlns="http://www.w3.org/2000/svg">
<path d="M11.5723 0.517578V14.7363H8.64258L2.92969 5.20508V14.7363H0V0.517578H2.92969L8.65234 10.0586V0.517578H11.5723ZM18.8086 14.9316C17.9883 14.9316 17.2526 14.8014 16.6016 14.541C15.9505 14.2741 15.3971 13.9062 14.9414 13.4375C14.4922 12.9688 14.1471 12.4251 13.9062 11.8066C13.6654 11.1816 13.5449 10.5176 13.5449 9.81445V9.42383C13.5449 8.62305 13.6589 7.89062 13.8867 7.22656C14.1146 6.5625 14.4401 5.98633 14.8633 5.49805C15.293 5.00977 15.8138 4.63542 16.4258 4.375C17.0378 4.10807 17.7279 3.97461 18.4961 3.97461C19.2448 3.97461 19.9089 4.09831 20.4883 4.3457C21.0677 4.5931 21.5527 4.94466 21.9434 5.40039C22.3405 5.85612 22.64 6.40299 22.8418 7.04102C23.0436 7.67253 23.1445 8.37565 23.1445 9.15039V10.3223H14.7461V8.44727H20.3809V8.23242C20.3809 7.8418 20.3092 7.49349 20.166 7.1875C20.0293 6.875 19.821 6.6276 19.541 6.44531C19.2611 6.26302 18.903 6.17188 18.4668 6.17188C18.0957 6.17188 17.7767 6.25326 17.5098 6.41602C17.2428 6.57878 17.0247 6.80664 16.8555 7.09961C16.6927 7.39258 16.569 7.73763 16.4844 8.13477C16.4062 8.52539 16.3672 8.95508 16.3672 9.42383V9.81445C16.3672 10.2376 16.4258 10.6283 16.543 10.9863C16.6667 11.3444 16.8392 11.6536 17.0605 11.9141C17.2884 12.1745 17.5618 12.3763 17.8809 12.5195C18.2064 12.6628 18.5742 12.7344 18.9844 12.7344C19.4922 12.7344 19.9642 12.6367 20.4004 12.4414C20.8431 12.2396 21.224 11.9368 21.543 11.5332L22.9102 13.0176C22.6888 13.3366 22.3861 13.6426 22.002 13.9355C21.6243 14.2285 21.1686 14.4694 20.6348 14.6582C20.1009 14.8405 19.4922 14.9316 18.8086 14.9316ZM30.9961 12.207V4.16992H33.8086V14.7363H31.1621L30.9961 12.207ZM31.3086 10.0391L32.1387 10.0195C32.1387 10.7227 32.0573 11.377 31.8945 11.9824C31.7318 12.5814 31.4876 13.1022 31.1621 13.5449C30.8366 13.9811 30.4264 14.3229 29.9316 14.5703C29.4368 14.8112 28.8542 14.9316 28.1836 14.9316C27.6693 14.9316 27.194 14.86 26.7578 14.7168C26.3281 14.5671 25.957 14.3359 25.6445 14.0234C25.3385 13.7044 25.0977 13.2975 24.9219 12.8027C24.7526 12.3014 24.668 11.6992 24.668 10.9961V4.16992H27.4805V11.0156C27.4805 11.3281 27.5163 11.5918 27.5879 11.8066C27.666 12.0215 27.7734 12.1973 27.9102 12.334C28.0469 12.4707 28.2064 12.5684 28.3887 12.627C28.5775 12.6855 28.7858 12.7148 29.0137 12.7148C29.5931 12.7148 30.0488 12.5977 30.3809 12.3633C30.7194 12.1289 30.957 11.8099 31.0938 11.4062C31.237 10.9961 31.3086 10.5404 31.3086 10.0391ZM38.7695 6.47461V14.7363H35.957V4.16992H38.6035L38.7695 6.47461ZM41.9531 4.10156L41.9043 6.70898C41.7676 6.68945 41.6016 6.67318 41.4062 6.66016C41.2174 6.64062 41.0449 6.63086 40.8887 6.63086C40.4915 6.63086 40.1465 6.68294 39.8535 6.78711C39.5671 6.88477 39.3262 7.03125 39.1309 7.22656C38.9421 7.42188 38.7988 7.65951 38.7012 7.93945C38.61 8.2194 38.5579 8.53841 38.5449 8.89648L37.9785 8.7207C37.9785 8.03711 38.0469 7.40885 38.1836 6.83594C38.3203 6.25651 38.5189 5.75195 38.7793 5.32227C39.0462 4.89258 39.3717 4.56055 39.7559 4.32617C40.14 4.0918 40.5794 3.97461 41.0742 3.97461C41.2305 3.97461 41.39 3.98763 41.5527 4.01367C41.7155 4.0332 41.849 4.0625 41.9531 4.10156ZM42.5391 9.56055V9.35547C42.5391 8.58073 42.6497 7.86784 42.8711 7.2168C43.0924 6.55924 43.4147 5.98958 43.8379 5.50781C44.2611 5.02604 44.7819 4.65169 45.4004 4.38477C46.0189 4.11133 46.7285 3.97461 47.5293 3.97461C48.3301 3.97461 49.043 4.11133 49.668 4.38477C50.293 4.65169 50.8171 5.02604 51.2402 5.50781C51.6699 5.98958 51.9954 6.55924 52.2168 7.2168C52.4382 7.86784 52.5488 8.58073 52.5488 9.35547V9.56055C52.5488 10.3288 52.4382 11.0417 52.2168 11.6992C51.9954 12.3503 51.6699 12.9199 51.2402 13.4082C50.8171 13.89 50.2962 14.2643 49.6777 14.5312C49.0592 14.7982 48.3496 14.9316 47.5488 14.9316C46.748 14.9316 46.0352 14.7982 45.4102 14.5312C44.7917 14.2643 44.2676 13.89 43.8379 13.4082C43.4147 12.9199 43.0924 12.3503 42.8711 11.6992C42.6497 11.0417 42.5391 10.3288 42.5391 9.56055ZM45.3516 9.35547V9.56055C45.3516 10.0033 45.3906 10.4167 45.4688 10.8008C45.5469 11.1849 45.6706 11.5234 45.8398 11.8164C46.0156 12.1029 46.2435 12.3275 46.5234 12.4902C46.8034 12.653 47.1452 12.7344 47.5488 12.7344C47.9395 12.7344 48.2747 12.653 48.5547 12.4902C48.8346 12.3275 49.0592 12.1029 49.2285 11.8164C49.3978 11.5234 49.5215 11.1849 49.5996 10.8008C49.6842 10.4167 49.7266 10.0033 49.7266 9.56055V9.35547C49.7266 8.92578 49.6842 8.52214 49.5996 8.14453C49.5215 7.76042 49.3945 7.42188 49.2188 7.12891C49.0495 6.82943 48.8249 6.59505 48.5449 6.42578C48.265 6.25651 47.9264 6.17188 47.5293 6.17188C47.1322 6.17188 46.7936 6.25651 46.5137 6.42578C46.2402 6.59505 46.0156 6.82943 45.8398 7.12891C45.6706 7.42188 45.5469 7.76042 45.4688 8.14453C45.3906 8.52214 45.3516 8.92578 45.3516 9.35547ZM59.9902 11.8164C59.9902 11.6146 59.9316 11.4323 59.8145 11.2695C59.6973 11.1068 59.4792 10.957 59.1602 10.8203C58.8477 10.6771 58.3952 10.5469 57.8027 10.4297C57.2689 10.3125 56.7708 10.166 56.3086 9.99023C55.8529 9.80794 55.4557 9.58984 55.1172 9.33594C54.7852 9.08203 54.5247 8.78255 54.3359 8.4375C54.1471 8.08594 54.0527 7.68555 54.0527 7.23633C54.0527 6.79362 54.1471 6.37695 54.3359 5.98633C54.5312 5.5957 54.8079 5.25065 55.166 4.95117C55.5306 4.64518 55.9733 4.40755 56.4941 4.23828C57.0215 4.0625 57.6139 3.97461 58.2715 3.97461C59.1895 3.97461 59.9772 4.12109 60.6348 4.41406C61.2988 4.70703 61.8066 5.11068 62.1582 5.625C62.5163 6.13281 62.6953 6.71224 62.6953 7.36328H59.8828C59.8828 7.08984 59.8242 6.8457 59.707 6.63086C59.5964 6.40951 59.4206 6.23698 59.1797 6.11328C58.9453 5.98307 58.6393 5.91797 58.2617 5.91797C57.9492 5.91797 57.679 5.97331 57.4512 6.08398C57.2233 6.18815 57.0475 6.33138 56.9238 6.51367C56.8066 6.68945 56.748 6.88477 56.748 7.09961C56.748 7.26237 56.7806 7.40885 56.8457 7.53906C56.9173 7.66276 57.0312 7.77669 57.1875 7.88086C57.3438 7.98503 57.5456 8.08268 57.793 8.17383C58.0469 8.25846 58.3594 8.33659 58.7305 8.4082C59.4922 8.56445 60.1725 8.76953 60.7715 9.02344C61.3704 9.27083 61.8457 9.60938 62.1973 10.0391C62.5488 10.4622 62.7246 11.0189 62.7246 11.709C62.7246 12.1777 62.6204 12.6074 62.4121 12.998C62.2038 13.3887 61.9043 13.7305 61.5137 14.0234C61.123 14.3099 60.6543 14.5345 60.1074 14.6973C59.5671 14.8535 58.9583 14.9316 58.2812 14.9316C57.2982 14.9316 56.4648 14.7559 55.7812 14.4043C55.1042 14.0527 54.5898 13.6068 54.2383 13.0664C53.8932 12.5195 53.7207 11.9596 53.7207 11.3867H56.3867C56.3997 11.7708 56.4974 12.0801 56.6797 12.3145C56.8685 12.5488 57.1061 12.7181 57.3926 12.8223C57.6855 12.9264 58.0013 12.9785 58.3398 12.9785C58.7044 12.9785 59.0072 12.9297 59.248 12.832C59.4889 12.7279 59.6712 12.5911 59.7949 12.4219C59.9251 12.2461 59.9902 12.0443 59.9902 11.8164ZM69.4141 14.9316C68.5938 14.9316 67.8581 14.8014 67.207 14.541C66.556 14.2741 66.0026 13.9062 65.5469 13.4375C65.0977 12.9688 64.7526 12.4251 64.5117 11.8066C64.2708 11.1816 64.1504 10.5176 64.1504 9.81445V9.42383C64.1504 8.62305 64.2643 7.89062 64.4922 7.22656C64.7201 6.5625 65.0456 5.98633 65.4688 5.49805C65.8984 5.00977 66.4193 4.63542 67.0312 4.375C67.6432 4.10807 68.3333 3.97461 69.1016 3.97461C69.8503 3.97461 70.5143 4.09831 71.0938 4.3457C71.6732 4.5931 72.1582 4.94466 72.5488 5.40039C72.946 5.85612 73.2454 6.40299 73.4473 7.04102C73.6491 7.67253 73.75 8.37565 73.75 9.15039V10.3223H65.3516V8.44727H70.9863V8.23242C70.9863 7.8418 70.9147 7.49349 70.7715 7.1875C70.6348 6.875 70.4264 6.6276 70.1465 6.44531C69.8665 6.26302 69.5085 6.17188 69.0723 6.17188C68.7012 6.17188 68.3822 6.25326 68.1152 6.41602C67.8483 6.57878 67.6302 6.80664 67.4609 7.09961C67.2982 7.39258 67.1745 7.73763 67.0898 8.13477C67.0117 8.52539 66.9727 8.95508 66.9727 9.42383V9.81445C66.9727 10.2376 67.0312 10.6283 67.1484 10.9863C67.2721 11.3444 67.4447 11.6536 67.666 11.9141C67.8939 12.1745 68.1673 12.3763 68.4863 12.5195C68.8118 12.6628 69.1797 12.7344 69.5898 12.7344C70.0977 12.7344 70.5697 12.6367 71.0059 12.4414C71.4486 12.2396 71.8294 11.9368 72.1484 11.5332L73.5156 13.0176C73.2943 13.3366 72.9915 13.6426 72.6074 13.9355C72.2298 14.2285 71.7741 14.4694 71.2402 14.6582C70.7064 14.8405 70.0977 14.9316 69.4141 14.9316ZM80.5273 4.16992V6.16211H74.375V4.16992H80.5273ZM75.8984 1.5625H78.7109V11.5527C78.7109 11.8587 78.75 12.0931 78.8281 12.2559C78.9128 12.4186 79.0365 12.5326 79.1992 12.5977C79.362 12.6562 79.5671 12.6855 79.8145 12.6855C79.9902 12.6855 80.1465 12.679 80.2832 12.666C80.4264 12.6465 80.5469 12.627 80.6445 12.6074L80.6543 14.6777C80.4134 14.7559 80.153 14.8177 79.873 14.8633C79.5931 14.9089 79.2839 14.9316 78.9453 14.9316C78.3268 14.9316 77.7865 14.8307 77.3242 14.6289C76.8685 14.4206 76.5169 14.0885 76.2695 13.6328C76.0221 13.1771 75.8984 12.5781 75.8984 11.8359V1.5625ZM82.2656 13.3789C82.2656 12.9622 82.4089 12.6139 82.6953 12.334C82.9883 12.054 83.3757 11.9141 83.8574 11.9141C84.3392 11.9141 84.7233 12.054 85.0098 12.334C85.3027 12.6139 85.4492 12.9622 85.4492 13.3789C85.4492 13.7956 85.3027 14.1439 85.0098 14.4238C84.7233 14.7038 84.3392 14.8438 83.8574 14.8438C83.3757 14.8438 82.9883 14.7038 82.6953 14.4238C82.4089 14.1439 82.2656 13.7956 82.2656 13.3789Z" fill="#111827"/>
<path d="M90.8984 4.16992V14.7363H88.0762V4.16992H90.8984ZM87.9004 1.41602C87.9004 1.00586 88.0436 0.667318 88.3301 0.400391C88.6165 0.133464 89.0007 0 89.4824 0C89.9577 0 90.3385 0.133464 90.625 0.400391C90.918 0.667318 91.0645 1.00586 91.0645 1.41602C91.0645 1.82617 90.918 2.16471 90.625 2.43164C90.3385 2.69857 89.9577 2.83203 89.4824 2.83203C89.0007 2.83203 88.6165 2.69857 88.3301 2.43164C88.0436 2.16471 87.9004 1.82617 87.9004 1.41602ZM92.7734 9.56055V9.35547C92.7734 8.58073 92.8841 7.86784 93.1055 7.2168C93.3268 6.55924 93.6491 5.98958 94.0723 5.50781C94.4954 5.02604 95.0163 4.65169 95.6348 4.38477C96.2533 4.11133 96.9629 3.97461 97.7637 3.97461C98.5645 3.97461 99.2773 4.11133 99.9023 4.38477C100.527 4.65169 101.051 5.02604 101.475 5.50781C101.904 5.98958 102.23 6.55924 102.451 7.2168C102.673 7.86784 102.783 8.58073 102.783 9.35547V9.56055C102.783 10.3288 102.673 11.0417 102.451 11.6992C102.23 12.3503 101.904 12.9199 101.475 13.4082C101.051 13.89 100.531 14.2643 99.9121 14.5312C99.2936 14.7982 98.584 14.9316 97.7832 14.9316C96.9824 14.9316 96.2695 14.7982 95.6445 14.5312C95.026 14.2643 94.502 13.89 94.0723 13.4082C93.6491 12.9199 93.3268 12.3503 93.1055 11.6992C92.8841 11.0417 92.7734 10.3288 92.7734 9.56055ZM95.5859 9.35547V9.56055C95.5859 10.0033 95.625 10.4167 95.7031 10.8008C95.7812 11.1849 95.9049 11.5234 96.0742 11.8164C96.25 12.1029 96.4779 12.3275 96.7578 12.4902C97.0378 12.653 97.3796 12.7344 97.7832 12.7344C98.1738 12.7344 98.5091 12.653 98.7891 12.4902C99.069 12.3275 99.2936 12.1029 99.4629 11.8164C99.6322 11.5234 99.7559 11.1849 99.834 10.8008C99.9186 10.4167 99.9609 10.0033 99.9609 9.56055V9.35547C99.9609 8.92578 99.9186 8.52214 99.834 8.14453C99.7559 7.76042 99.6289 7.42188 99.4531 7.12891C99.2839 6.82943 99.0592 6.59505 98.7793 6.42578C98.4993 6.25651 98.1608 6.17188 97.7637 6.17188C97.3665 6.17188 97.028 6.25651 96.748 6.42578C96.4746 6.59505 96.25 6.82943 96.0742 7.12891C95.9049 7.42188 95.7812 7.76042 95.7031 8.14453C95.625 8.52214 95.5859 8.92578 95.5859 9.35547Z" fill="#2563EB"/>
</svg>
