<svg width="32" height="32" viewBox="0 0 32 32" fill="none" xmlns="http://www.w3.org/2000/svg">
<g clip-path="url(#clip0_1_1675)">
<rect width="32" height="32" rx="4" fill="#0A1740"/>
<path d="M16 2.5C23.1797 2.5 29 8.32031 29 15.5C29 22.6797 23.1797 28.5 16 28.5C8.8203 28.5 3 22.6797 3 15.5C3.00001 8.32031 8.8203 2.5 16 2.5ZM16 7.5C11.5817 7.5 8.00001 11.0817 8 15.5C8 19.9183 11.5817 23.5 16 23.5C20.4183 23.5 24 19.9183 24 15.5C24 11.0817 20.4183 7.5 16 7.5Z" fill="url(#paint0_linear_1_1675)"/>
</g>
<defs>
<linearGradient id="paint0_linear_1_1675" x1="13.2261" y1="40.6522" x2="40.7039" y2="18.4513" gradientUnits="userSpaceOnUse">
<stop stop-color="#9358F7"/>
<stop offset="0.259732" stop-color="#7B78F2"/>
<stop offset="0.500607" stop-color="#6197EE"/>
<stop offset="0.766547" stop-color="#45B5E9"/>
<stop offset="1" stop-color="#10D7E2"/>
</linearGradient>
<clipPath id="clip0_1_1675">
<rect width="32" height="32" rx="4" fill="white"/>
</clipPath>
</defs>
</svg>
