<svg width="185" height="27" viewBox="0 0 185 27" fill="none" xmlns="http://www.w3.org/2000/svg">
<path d="M20.8301 0.931641V26.5254H15.5566L5.27344 9.36914V26.5254H0V0.931641H5.27344L15.5742 18.1055V0.931641H20.8301ZM33.8555 26.877C32.3789 26.877 31.0547 26.6426 29.8828 26.1738C28.7109 25.6934 27.7148 25.0312 26.8945 24.1875C26.0859 23.3438 25.4648 22.3652 25.0312 21.252C24.5977 20.127 24.3809 18.9316 24.3809 17.666V16.9629C24.3809 15.5215 24.5859 14.2031 24.9961 13.0078C25.4062 11.8125 25.9922 10.7754 26.7539 9.89648C27.5273 9.01758 28.4648 8.34375 29.5664 7.875C30.668 7.39453 31.9102 7.1543 33.293 7.1543C34.6406 7.1543 35.8359 7.37695 36.8789 7.82227C37.9219 8.26758 38.7949 8.90039 39.498 9.7207C40.2129 10.541 40.752 11.5254 41.1152 12.6738C41.4785 13.8105 41.6602 15.0762 41.6602 16.4707V18.5801H26.543V15.2051H36.6855V14.8184C36.6855 14.1152 36.5566 13.4883 36.2988 12.9375C36.0527 12.375 35.6777 11.9297 35.1738 11.6016C34.6699 11.2734 34.0254 11.1094 33.2402 11.1094C32.5723 11.1094 31.998 11.2559 31.5176 11.5488C31.0371 11.8418 30.6445 12.252 30.3398 12.7793C30.0469 13.3066 29.8242 13.9277 29.6719 14.6426C29.5312 15.3457 29.4609 16.1191 29.4609 16.9629V17.666C29.4609 18.4277 29.5664 19.1309 29.7773 19.7754C30 20.4199 30.3105 20.9766 30.709 21.4453C31.1191 21.9141 31.6113 22.2773 32.1855 22.5352C32.7715 22.793 33.4336 22.9219 34.1719 22.9219C35.0859 22.9219 35.9355 22.7461 36.7207 22.3945C37.5176 22.0312 38.2031 21.4863 38.7773 20.7598L41.2383 23.4316C40.8398 24.0059 40.2949 24.5566 39.6035 25.084C38.9238 25.6113 38.1035 26.0449 37.1426 26.3848C36.1816 26.7129 35.0859 26.877 33.8555 26.877ZM55.793 21.9727V7.50586H60.8555V26.5254H56.0918L55.793 21.9727ZM56.3555 18.0703L57.8496 18.0352C57.8496 19.3008 57.7031 20.4785 57.4102 21.5684C57.1172 22.6465 56.6777 23.584 56.0918 24.3809C55.5059 25.166 54.7676 25.7812 53.877 26.2266C52.9863 26.6602 51.9375 26.877 50.7305 26.877C49.8047 26.877 48.9492 26.748 48.1641 26.4902C47.3906 26.2207 46.7227 25.8047 46.1602 25.2422C45.6094 24.668 45.1758 23.9355 44.8594 23.0449C44.5547 22.1426 44.4023 21.0586 44.4023 19.793V7.50586H49.4648V19.8281C49.4648 20.3906 49.5293 20.8652 49.6582 21.252C49.7988 21.6387 49.9922 21.9551 50.2383 22.2012C50.4844 22.4473 50.7715 22.623 51.0996 22.7285C51.4395 22.834 51.8145 22.8867 52.2246 22.8867C53.2676 22.8867 54.0879 22.6758 54.6855 22.2539C55.2949 21.832 55.7227 21.2578 55.9688 20.5312C56.2266 19.793 56.3555 18.9727 56.3555 18.0703ZM69.7852 11.6543V26.5254H64.7227V7.50586H69.4863L69.7852 11.6543ZM75.5156 7.38281L75.4277 12.0762C75.1816 12.041 74.8828 12.0117 74.5312 11.9883C74.1914 11.9531 73.8809 11.9355 73.5996 11.9355C72.8848 11.9355 72.2637 12.0293 71.7363 12.2168C71.2207 12.3926 70.7871 12.6562 70.4355 13.0078C70.0957 13.3594 69.8379 13.7871 69.6621 14.291C69.498 14.7949 69.4043 15.3691 69.3809 16.0137L68.3613 15.6973C68.3613 14.4668 68.4844 13.3359 68.7305 12.3047C68.9766 11.2617 69.334 10.3535 69.8027 9.58008C70.2832 8.80664 70.8691 8.20898 71.5605 7.78711C72.252 7.36523 73.043 7.1543 73.9336 7.1543C74.2148 7.1543 74.502 7.17773 74.7949 7.22461C75.0879 7.25977 75.3281 7.3125 75.5156 7.38281ZM76.5703 17.209V16.8398C76.5703 15.4453 76.7695 14.1621 77.168 12.9902C77.5664 11.8066 78.1465 10.7812 78.9082 9.91406C79.6699 9.04688 80.6074 8.37305 81.7207 7.89258C82.834 7.40039 84.1113 7.1543 85.5527 7.1543C86.9941 7.1543 88.2773 7.40039 89.4023 7.89258C90.5273 8.37305 91.4707 9.04688 92.2324 9.91406C93.0059 10.7812 93.5918 11.8066 93.9902 12.9902C94.3887 14.1621 94.5879 15.4453 94.5879 16.8398V17.209C94.5879 18.5918 94.3887 19.875 93.9902 21.0586C93.5918 22.2305 93.0059 23.2559 92.2324 24.1348C91.4707 25.002 90.5332 25.6758 89.4199 26.1562C88.3066 26.6367 87.0293 26.877 85.5879 26.877C84.1465 26.877 82.8633 26.6367 81.7383 26.1562C80.625 25.6758 79.6816 25.002 78.9082 24.1348C78.1465 23.2559 77.5664 22.2305 77.168 21.0586C76.7695 19.875 76.5703 18.5918 76.5703 17.209ZM81.6328 16.8398V17.209C81.6328 18.0059 81.7031 18.75 81.8438 19.4414C81.9844 20.1328 82.207 20.7422 82.5117 21.2695C82.8281 21.7852 83.2383 22.1895 83.7422 22.4824C84.2461 22.7754 84.8613 22.9219 85.5879 22.9219C86.291 22.9219 86.8945 22.7754 87.3984 22.4824C87.9023 22.1895 88.3066 21.7852 88.6113 21.2695C88.916 20.7422 89.1387 20.1328 89.2793 19.4414C89.4316 18.75 89.5078 18.0059 89.5078 17.209V16.8398C89.5078 16.0664 89.4316 15.3398 89.2793 14.6602C89.1387 13.9688 88.9102 13.3594 88.5938 12.832C88.2891 12.293 87.8848 11.8711 87.3809 11.5664C86.877 11.2617 86.2676 11.1094 85.5527 11.1094C84.8379 11.1094 84.2285 11.2617 83.7246 11.5664C83.2324 11.8711 82.8281 12.293 82.5117 12.832C82.207 13.3594 81.9844 13.9688 81.8438 14.6602C81.7031 15.3398 81.6328 16.0664 81.6328 16.8398ZM107.982 21.2695C107.982 20.9062 107.877 20.5781 107.666 20.2852C107.455 19.9922 107.062 19.7227 106.488 19.4766C105.926 19.2188 105.111 18.9844 104.045 18.7734C103.084 18.5625 102.188 18.2988 101.355 17.9824C100.535 17.6543 99.8203 17.2617 99.2109 16.8047C98.6133 16.3477 98.1445 15.8086 97.8047 15.1875C97.4648 14.5547 97.2949 13.834 97.2949 13.0254C97.2949 12.2285 97.4648 11.4785 97.8047 10.7754C98.1562 10.0723 98.6543 9.45117 99.2988 8.91211C99.9551 8.36133 100.752 7.93359 101.689 7.62891C102.639 7.3125 103.705 7.1543 104.889 7.1543C106.541 7.1543 107.959 7.41797 109.143 7.94531C110.338 8.47266 111.252 9.19922 111.885 10.125C112.529 11.0391 112.852 12.082 112.852 13.2539H107.789C107.789 12.7617 107.684 12.3223 107.473 11.9355C107.273 11.5371 106.957 11.2266 106.523 11.0039C106.102 10.7695 105.551 10.6523 104.871 10.6523C104.309 10.6523 103.822 10.752 103.412 10.9512C103.002 11.1387 102.686 11.3965 102.463 11.7246C102.252 12.041 102.146 12.3926 102.146 12.7793C102.146 13.0723 102.205 13.3359 102.322 13.5703C102.451 13.793 102.656 13.998 102.938 14.1855C103.219 14.373 103.582 14.5488 104.027 14.7129C104.484 14.8652 105.047 15.0059 105.715 15.1348C107.086 15.416 108.311 15.7852 109.389 16.2422C110.467 16.6875 111.322 17.2969 111.955 18.0703C112.588 18.832 112.904 19.834 112.904 21.0762C112.904 21.9199 112.717 22.6934 112.342 23.3965C111.967 24.0996 111.428 24.7148 110.725 25.2422C110.021 25.7578 109.178 26.1621 108.193 26.4551C107.221 26.7363 106.125 26.877 104.906 26.877C103.137 26.877 101.637 26.5605 100.406 25.9277C99.1875 25.2949 98.2617 24.4922 97.6289 23.5195C97.0078 22.5352 96.6973 21.5273 96.6973 20.4961H101.496C101.52 21.1875 101.695 21.7441 102.023 22.166C102.363 22.5879 102.791 22.8926 103.307 23.0801C103.834 23.2676 104.402 23.3613 105.012 23.3613C105.668 23.3613 106.213 23.2734 106.646 23.0977C107.08 22.9102 107.408 22.6641 107.631 22.3594C107.865 22.043 107.982 21.6797 107.982 21.2695ZM124.945 26.877C123.469 26.877 122.145 26.6426 120.973 26.1738C119.801 25.6934 118.805 25.0312 117.984 24.1875C117.176 23.3438 116.555 22.3652 116.121 21.252C115.688 20.127 115.471 18.9316 115.471 17.666V16.9629C115.471 15.5215 115.676 14.2031 116.086 13.0078C116.496 11.8125 117.082 10.7754 117.844 9.89648C118.617 9.01758 119.555 8.34375 120.656 7.875C121.758 7.39453 123 7.1543 124.383 7.1543C125.73 7.1543 126.926 7.37695 127.969 7.82227C129.012 8.26758 129.885 8.90039 130.588 9.7207C131.303 10.541 131.842 11.5254 132.205 12.6738C132.568 13.8105 132.75 15.0762 132.75 16.4707V18.5801H117.633V15.2051H127.775V14.8184C127.775 14.1152 127.646 13.4883 127.389 12.9375C127.143 12.375 126.768 11.9297 126.264 11.6016C125.76 11.2734 125.115 11.1094 124.33 11.1094C123.662 11.1094 123.088 11.2559 122.607 11.5488C122.127 11.8418 121.734 12.252 121.43 12.7793C121.137 13.3066 120.914 13.9277 120.762 14.6426C120.621 15.3457 120.551 16.1191 120.551 16.9629V17.666C120.551 18.4277 120.656 19.1309 120.867 19.7754C121.09 20.4199 121.4 20.9766 121.799 21.4453C122.209 21.9141 122.701 22.2773 123.275 22.5352C123.861 22.793 124.523 22.9219 125.262 22.9219C126.176 22.9219 127.025 22.7461 127.811 22.3945C128.607 22.0312 129.293 21.4863 129.867 20.7598L132.328 23.4316C131.93 24.0059 131.385 24.5566 130.693 25.084C130.014 25.6113 129.193 26.0449 128.232 26.3848C127.271 26.7129 126.176 26.877 124.945 26.877ZM144.949 7.50586V11.0918H133.875V7.50586H144.949ZM136.617 2.8125H141.68V20.7949C141.68 21.3457 141.75 21.7676 141.891 22.0605C142.043 22.3535 142.266 22.5586 142.559 22.6758C142.852 22.7812 143.221 22.834 143.666 22.834C143.982 22.834 144.264 22.8223 144.51 22.7988C144.768 22.7637 144.984 22.7285 145.16 22.6934L145.178 26.4199C144.744 26.5605 144.275 26.6719 143.771 26.7539C143.268 26.8359 142.711 26.877 142.102 26.877C140.988 26.877 140.016 26.6953 139.184 26.332C138.363 25.957 137.73 25.3594 137.285 24.5391C136.84 23.7188 136.617 22.6406 136.617 21.3047V2.8125ZM148.078 24.082C148.078 23.332 148.336 22.7051 148.852 22.2012C149.379 21.6973 150.076 21.4453 150.943 21.4453C151.811 21.4453 152.502 21.6973 153.018 22.2012C153.545 22.7051 153.809 23.332 153.809 24.082C153.809 24.832 153.545 25.459 153.018 25.9629C152.502 26.4668 151.811 26.7188 150.943 26.7188C150.076 26.7188 149.379 26.4668 148.852 25.9629C148.336 25.459 148.078 24.832 148.078 24.082Z" fill="#111827"/>
<path d="M163.617 7.50586V26.5254H158.537V7.50586H163.617ZM158.221 2.54883C158.221 1.81055 158.479 1.20117 158.994 0.720703C159.51 0.240234 160.201 0 161.068 0C161.924 0 162.609 0.240234 163.125 0.720703C163.652 1.20117 163.916 1.81055 163.916 2.54883C163.916 3.28711 163.652 3.89648 163.125 4.37695C162.609 4.85742 161.924 5.09766 161.068 5.09766C160.201 5.09766 159.51 4.85742 158.994 4.37695C158.479 3.89648 158.221 3.28711 158.221 2.54883ZM166.992 17.209V16.8398C166.992 15.4453 167.191 14.1621 167.59 12.9902C167.988 11.8066 168.568 10.7812 169.33 9.91406C170.092 9.04688 171.029 8.37305 172.143 7.89258C173.256 7.40039 174.533 7.1543 175.975 7.1543C177.416 7.1543 178.699 7.40039 179.824 7.89258C180.949 8.37305 181.893 9.04688 182.654 9.91406C183.428 10.7812 184.014 11.8066 184.412 12.9902C184.811 14.1621 185.01 15.4453 185.01 16.8398V17.209C185.01 18.5918 184.811 19.875 184.412 21.0586C184.014 22.2305 183.428 23.2559 182.654 24.1348C181.893 25.002 180.955 25.6758 179.842 26.1562C178.729 26.6367 177.451 26.877 176.01 26.877C174.568 26.877 173.285 26.6367 172.16 26.1562C171.047 25.6758 170.104 25.002 169.33 24.1348C168.568 23.2559 167.988 22.2305 167.59 21.0586C167.191 19.875 166.992 18.5918 166.992 17.209ZM172.055 16.8398V17.209C172.055 18.0059 172.125 18.75 172.266 19.4414C172.406 20.1328 172.629 20.7422 172.934 21.2695C173.25 21.7852 173.66 22.1895 174.164 22.4824C174.668 22.7754 175.283 22.9219 176.01 22.9219C176.713 22.9219 177.316 22.7754 177.82 22.4824C178.324 22.1895 178.729 21.7852 179.033 21.2695C179.338 20.7422 179.561 20.1328 179.701 19.4414C179.854 18.75 179.93 18.0059 179.93 17.209V16.8398C179.93 16.0664 179.854 15.3398 179.701 14.6602C179.561 13.9688 179.332 13.3594 179.016 12.832C178.711 12.293 178.307 11.8711 177.803 11.5664C177.299 11.2617 176.689 11.1094 175.975 11.1094C175.26 11.1094 174.65 11.2617 174.146 11.5664C173.654 11.8711 173.25 12.293 172.934 12.832C172.629 13.3594 172.406 13.9688 172.266 14.6602C172.125 15.3398 172.055 16.0664 172.055 16.8398Z" fill="#2563EB"/>
</svg>
