<svg width="17" height="17" viewBox="0 0 17 17" fill="none" xmlns="http://www.w3.org/2000/svg">
<path d="M6.08019 2.89712C7.15684 0.965707 7.69517 0 8.5 0C9.30483 0 9.84316 0.965706 10.9198 2.89712L11.1984 3.3968C11.5043 3.94564 11.6573 4.22007 11.8958 4.40114C12.1343 4.5822 12.4314 4.64942 13.0255 4.78384L13.5664 4.90622C15.6571 5.37927 16.7025 5.6158 16.9512 6.41557C17.1999 7.21535 16.4872 8.04871 15.0619 9.71544L14.6932 10.1466C14.2881 10.6203 14.0856 10.8571 13.9945 11.1501C13.9034 11.443 13.934 11.759 13.9953 12.3909L14.051 12.9662C14.2665 15.19 14.3742 16.3019 13.7231 16.7962C13.072 17.2905 12.0932 16.8398 10.1357 15.9385L9.62924 15.7053C9.07296 15.4492 8.79483 15.3211 8.5 15.3211C8.20517 15.3211 7.92704 15.4492 7.37076 15.7053L6.86432 15.9385C4.90677 16.8398 3.928 17.2905 3.27688 16.7962C2.62575 16.3019 2.7335 15.19 2.94899 12.9662L3.00474 12.3909C3.06597 11.759 3.09659 11.443 3.00548 11.1501C2.91438 10.8571 2.71186 10.6203 2.30683 10.1466L1.93808 9.71544C0.512762 8.04871 -0.199899 7.21535 0.0488078 6.41557C0.297515 5.6158 1.34288 5.37927 3.43361 4.90622L3.9745 4.78384C4.56862 4.64942 4.86568 4.5822 5.1042 4.40114C5.34272 4.22007 5.4957 3.94565 5.80165 3.3968L6.08019 2.89712Z" fill="#A4B2DF"/>
</svg>
