<svg width="44" height="44" viewBox="0 0 44 44" fill="none" xmlns="http://www.w3.org/2000/svg">
<path d="M15.737 7.49843C18.5236 2.49948 19.9169 0 22 0C24.0831 0 25.4764 2.49947 28.263 7.49842L28.984 8.79171C29.7758 10.2123 30.1718 10.9225 30.7891 11.3912C31.4065 11.8598 32.1753 12.0338 33.7131 12.3817L35.113 12.6985C40.5243 13.9228 43.23 14.535 43.8737 16.605C44.5174 18.675 42.6729 20.832 38.9838 25.1458L38.0294 26.2619C36.9811 27.4878 36.4569 28.1007 36.2211 28.859C35.9853 29.6173 36.0645 30.435 36.223 32.0706L36.3673 33.5597C36.9251 39.3153 37.2039 42.1931 35.5187 43.4725C33.8334 44.7518 31.3001 43.5854 26.2335 41.2526L24.9227 40.649C23.483 39.9861 22.7631 39.6547 22 39.6547C21.2369 39.6547 20.517 39.9861 19.0773 40.649L17.7665 41.2526C12.6999 43.5854 10.1666 44.7518 8.48133 43.4725C6.79607 42.1931 7.07493 39.3153 7.63267 33.5597L7.77697 32.0706C7.93546 30.435 8.0147 29.6173 7.7789 28.859C7.54309 28.1007 7.01894 27.4878 5.97062 26.2619L5.01621 25.1458C1.32715 20.832 -0.517386 18.675 0.126326 16.605C0.770038 14.535 3.47569 13.9228 8.88698 12.6985L10.287 12.3817C11.8247 12.0338 12.5935 11.8598 13.2109 11.3912C13.8282 10.9225 14.2242 10.2123 15.016 8.79171L15.737 7.49843Z" fill="#A4B2DF"/>
</svg>
